<?xml version="1.0" encoding="UTF-8"?>
<svg id="Layer_2" data-name="Layer 2" xmlns="http://www.w3.org/2000/svg" viewBox="0 0 1091.13 347.06">
  <defs>
    <style>
      .cls-1 {
        fill: #272761;
      }

      .cls-2 {
        fill: #231f20;
      }

      .cls-3 {
        fill: #e81a69;
      }
    </style>
  </defs>
  <g id="Layer_1-2" data-name="Layer 1">
    <g>
      <g>
        <path class="cls-2" d="M553.4,346.3v-53.26h9.89v44.89h27.84v8.37h-37.74Z"/>
        <path class="cls-2" d="M638.15,347.06c-4.11,0-7.92-.68-11.45-2.05-3.53-1.37-6.58-3.3-9.17-5.78-2.59-2.48-4.59-5.39-6.01-8.71s-2.13-6.94-2.13-10.84.71-7.59,2.13-10.92,3.42-6.21,6.01-8.67c2.59-2.46,5.63-4.37,9.13-5.74,3.5-1.37,7.33-2.05,11.49-2.05s7.91.67,11.41,2.02c3.5,1.34,6.53,3.25,9.09,5.71,2.56,2.46,4.55,5.36,5.97,8.71,1.42,3.35,2.13,7,2.13,10.96s-.71,7.6-2.13,10.92c-1.42,3.32-3.41,6.23-5.97,8.71-2.56,2.49-5.59,4.4-9.09,5.74-3.5,1.34-7.3,2.02-11.41,2.02ZM638.15,338.39c2.69,0,5.16-.46,7.42-1.37,2.26-.91,4.22-2.21,5.9-3.88s2.98-3.65,3.92-5.93c.94-2.28,1.41-4.79,1.41-7.53s-.46-5.25-1.37-7.53-2.22-4.26-3.92-5.93c-1.7-1.67-3.68-2.97-5.93-3.88-2.26-.91-4.73-1.37-7.42-1.37s-5.19.46-7.49,1.37c-2.31.91-4.3,2.22-5.97,3.92s-2.99,3.68-3.96,5.93c-.96,2.26-1.45,4.75-1.45,7.49s.48,5.17,1.45,7.46c.96,2.28,2.28,4.27,3.96,5.97,1.67,1.7,3.66,3.01,5.97,3.92,2.31.91,4.8,1.37,7.49,1.37Z"/>
        <path class="cls-2" d="M717.35,347.06c-4.16,0-7.98-.67-11.45-2.02-3.48-1.34-6.5-3.26-9.09-5.74-2.59-2.48-4.59-5.38-6.01-8.67-1.42-3.3-2.13-6.95-2.13-10.96s.71-7.66,2.13-10.96,3.44-6.19,6.05-8.67c2.61-2.48,5.65-4.4,9.13-5.74,3.47-1.34,7.34-2.02,11.6-2.02s8.51.74,12.13,2.21c3.63,1.47,6.68,3.63,9.17,6.47l-6.24,6.09c-2.08-2.08-4.32-3.61-6.73-4.6-2.41-.99-5.06-1.48-7.95-1.48s-5.44.46-7.8,1.37c-2.36.91-4.4,2.21-6.12,3.88-1.72,1.67-3.07,3.65-4.03,5.93-.96,2.28-1.45,4.79-1.45,7.53s.48,5.19,1.45,7.49c.96,2.31,2.31,4.3,4.03,5.97,1.72,1.67,3.75,2.97,6.09,3.88,2.33.91,4.92,1.37,7.76,1.37,2.64,0,5.18-.42,7.65-1.26,2.46-.84,4.8-2.24,7.04-4.22l5.55,7.38c-2.74,2.23-5.93,3.92-9.59,5.06-3.65,1.14-7.38,1.71-11.18,1.71ZM728.84,339v-19.86h9.28v21.15l-9.28-1.29Z"/>
        <path class="cls-2" d="M766.42,346.3v-53.26h9.89v53.26h-9.89Z"/>
        <path class="cls-2" d="M822.42,347.06c-4.16,0-8.13-.6-11.91-1.79-3.78-1.19-6.81-2.73-9.09-4.6l3.42-7.68c2.13,1.67,4.77,3.07,7.91,4.18,3.14,1.12,6.36,1.67,9.66,1.67,2.79,0,5.05-.3,6.77-.91,1.72-.61,2.99-1.43,3.8-2.47.81-1.04,1.22-2.22,1.22-3.54,0-1.62-.58-2.93-1.75-3.92-1.17-.99-2.68-1.78-4.53-2.36-1.85-.58-3.91-1.12-6.16-1.6-2.26-.48-4.51-1.08-6.77-1.79-2.26-.71-4.33-1.61-6.2-2.7-1.88-1.09-3.39-2.55-4.53-4.37-1.14-1.83-1.71-4.16-1.71-7s.77-5.54,2.32-7.95c1.55-2.41,3.91-4.34,7.08-5.78,3.17-1.45,7.19-2.17,12.06-2.17,3.2,0,6.36.41,9.51,1.22,3.14.81,5.88,1.98,8.22,3.5l-3.12,7.68c-2.38-1.42-4.84-2.47-7.38-3.16-2.54-.68-4.97-1.03-7.3-1.03-2.69,0-4.9.33-6.62.99-1.72.66-2.98,1.53-3.77,2.62-.79,1.09-1.18,2.3-1.18,3.61,0,1.62.57,2.93,1.71,3.92s2.64,1.76,4.49,2.32c1.85.56,3.92,1.09,6.2,1.6,2.28.51,4.54,1.1,6.77,1.79,2.23.68,4.29,1.57,6.16,2.66,1.88,1.09,3.39,2.54,4.53,4.34,1.14,1.8,1.71,4.1,1.71,6.89s-.77,5.47-2.32,7.87c-1.55,2.41-3.92,4.34-7.11,5.78s-7.23,2.17-12.1,2.17Z"/>
        <path class="cls-2" d="M879.02,346.3v-44.89h-17.65v-8.37h45.19v8.37h-17.65v44.89h-9.89Z"/>
        <path class="cls-2" d="M929.23,346.3v-53.26h9.89v53.26h-9.89Z"/>
        <path class="cls-2" d="M993.37,347.06c-4.11,0-7.89-.67-11.34-2.02-3.45-1.34-6.46-3.26-9.02-5.74-2.56-2.48-4.55-5.38-5.97-8.67-1.42-3.3-2.13-6.95-2.13-10.96s.71-7.66,2.13-10.96,3.42-6.19,6.01-8.67c2.59-2.48,5.6-4.4,9.05-5.74,3.45-1.34,7.23-2.02,11.34-2.02,4.36,0,8.34.75,11.94,2.24,3.6,1.5,6.64,3.72,9.13,6.66l-6.39,6.01c-1.98-2.08-4.16-3.64-6.54-4.68-2.38-1.04-4.94-1.56-7.68-1.56s-5.34.46-7.65,1.37c-2.31.91-4.31,2.21-6.01,3.88-1.7,1.67-3.03,3.65-3.99,5.93-.96,2.28-1.45,4.79-1.45,7.53s.48,5.25,1.45,7.53c.96,2.28,2.29,4.26,3.99,5.93,1.7,1.67,3.7,2.97,6.01,3.88,2.31.91,4.86,1.37,7.65,1.37s5.3-.52,7.68-1.56c2.38-1.04,4.57-2.62,6.54-4.75l6.39,6.01c-2.49,2.94-5.53,5.17-9.13,6.7-3.6,1.52-7.61,2.28-12.02,2.28Z"/>
        <path class="cls-2" d="M1055.68,347.06c-4.16,0-8.13-.6-11.91-1.79-3.78-1.19-6.81-2.73-9.09-4.6l3.42-7.68c2.13,1.67,4.77,3.07,7.91,4.18,3.14,1.12,6.36,1.67,9.66,1.67,2.79,0,5.05-.3,6.77-.91,1.72-.61,2.99-1.43,3.8-2.47.81-1.04,1.22-2.22,1.22-3.54,0-1.62-.58-2.93-1.75-3.92-1.17-.99-2.68-1.78-4.53-2.36-1.85-.58-3.91-1.12-6.16-1.6-2.26-.48-4.51-1.08-6.77-1.79-2.26-.71-4.33-1.61-6.2-2.7-1.88-1.09-3.39-2.55-4.53-4.37-1.14-1.83-1.71-4.16-1.71-7s.77-5.54,2.32-7.95c1.55-2.41,3.91-4.34,7.08-5.78,3.17-1.45,7.19-2.17,12.06-2.17,3.2,0,6.36.41,9.51,1.22,3.14.81,5.88,1.98,8.22,3.5l-3.12,7.68c-2.38-1.42-4.84-2.47-7.38-3.16-2.54-.68-4.97-1.03-7.3-1.03-2.69,0-4.9.33-6.62.99-1.72.66-2.98,1.53-3.77,2.62-.79,1.09-1.18,2.3-1.18,3.61,0,1.62.57,2.93,1.71,3.92s2.64,1.76,4.49,2.32c1.85.56,3.92,1.09,6.2,1.6,2.28.51,4.54,1.1,6.77,1.79,2.23.68,4.29,1.57,6.16,2.66,1.88,1.09,3.39,2.54,4.53,4.34,1.14,1.8,1.71,4.1,1.71,6.89s-.77,5.47-2.32,7.87c-1.55,2.41-3.92,4.34-7.11,5.78s-7.23,2.17-12.1,2.17Z"/>
      </g>
      <g>
        <path class="cls-1" d="M353.24,40.5h-53.17l-68.2,188.49h48.07l11.27-33.3h70.35l11.28,33.3h48.6l-68.2-188.49ZM303.3,160.25l23.09-69.01,23.36,69.01h-46.45Z"/>
        <path class="cls-1" d="M158.98,40.94l-52.19,130.08L54.07,40.94H0v187.89h45.77v-112.94l42.29,112.94h36.93l42.02-112.68v112.68h45.77V40.94h-53.8Z"/>
        <path class="cls-1" d="M530.21,132.86l73.03-92.36h-53.96l-62.83,82.69V40.5h-45.92v188.49h45.92v-83.24l63.36,83.24h56.12l-75.72-96.13Z"/>
        <path class="cls-1" d="M706.07,77.23l-45.87,16.68v135.08h45.91V77.33l-.04-.1Z"/>
        <path class="cls-1" d="M876.8,40.5v112.77c0,11.27-2.87,19.96-8.59,26.04-5.73,6.09-13.97,9.13-24.71,9.13s-18.88-3.04-24.43-9.13c-5.55-6.08-8.32-14.77-8.32-26.04V40.5h-3.71l-42.21,15.35v97.15c0,16.83,3.4,31.1,10.21,42.82,6.8,11.73,16.06,20.5,27.79,26.32,11.72,5.82,25.01,8.72,39.87,8.72s28.33-2.95,40.41-8.86c12.08-5.9,21.7-14.67,28.86-26.31,7.16-11.63,10.74-25.86,10.74-42.69V40.5h-45.91Z"/>
        <path class="cls-1" d="M1081.2,148.57c-6.63-8.5-15.4-13.92-26.32-16.25,9.67-2.86,17.41-7.96,23.23-15.3,5.81-7.34,8.73-16.56,8.73-27.66,0-15.03-5.42-26.93-16.25-35.71-10.83-8.77-25.82-13.15-44.97-13.15h-84.85v188.49h87.8c19.69,0,35.04-4.61,46.05-13.83,11.01-9.22,16.51-21.71,16.51-37.46,0-10.91-3.31-20.63-9.93-29.13ZM986.68,77.28h30.08c7.51,0,13.29,1.7,17.32,5.1,4.02,3.41,6.04,8.33,6.04,14.77s-2.02,11.32-6.04,14.63c-4.03,3.32-9.81,4.97-17.32,4.97h-30.08v-39.47ZM1038.37,186.7c-4.21,3.49-10.16,5.23-17.85,5.23h-33.84v-41.62h33.3c7.69,0,13.73,1.88,18.12,5.64,4.39,3.76,6.58,8.96,6.58,15.57s-2.1,11.68-6.31,15.18Z"/>
      </g>
      <polygon class="cls-3" points="846.52 0 617.8 40.66 617.79 40.68 617.63 41.03 611.56 54.51 611.55 54.53 610.46 56.95 604.6 69.96 591.88 98.19 591.88 98.2 846.52 0"/>
    </g>
  </g>
</svg>